Release Info:
==============
original name .... : Back To The Future 25th Anniversary Trilogy 720p BDRip H264 [ChattChitto RG]
ripper.............: Recalled2Life (R2L)
encoder............: Recalled2Life (R2L)
video codec........: H264/.MP4
audio codec........: AAC-LC
language...........: English
2ch Audio..........: 2ch Audio for XBox Viewers  
Compatibility .....: XBox | PS3 | WD Live


@@@@@@@@@@@@@@@@@@@@@@@@@@@@@@@@@@@@@@@@@@@@@@@@@@@@@@@@@@@@@@@@@@@@@@@@@@@@@@@@@


General                          : ChattChitto RG - Movies [R2L]
===========
Complete name                    : Back To The Future 1985 720p BDRip H264
Format                           : MPEG-4
Format profile                   : Base Media
Codec ID                         : isom
File size                        : 2.15 GiB
Duration                         : 1h 56mn
Overall bit rate                 : 2 652 Kbps
Encoded date                     : UTC 2011-01-20 01:21:27

Video
===========
ID                               : 1
Format                           : AVC
Format/Info                      : Advanced Video Codec
Format profile                   : High@L4.0
Format settings, CABAC           : Yes
Format settings, ReFrames        : 4 frames
Codec ID                         : avc1
Codec ID/Info                    : Advanced Video Coding
Duration                         : 1h 56mn
Bit rate mode                    : Variable
Bit rate                         : 2 300 Kbps
Maximum bit rate                 : 17.6 Mbps
Width                            : 1 280 pixels
Height                           : 688 pixels
Display aspect ratio             : 1.860
Frame rate mode                  : Constant
Frame rate                       : 23.976 fps
Resolution                       : 24 bits
Colorimetry                      : 4:2:0
Scan type                        : Progressive
Bits/(Pixel*Frame)               : 0.109
Stream size                      : 1.86 GiB (87%)
Writing library                  : x264 core 84 r1400M 20fa784
Encoded date                     : UTC 2011-01-16 15:47:01

Audio
==========
ID                               : 2
Format                           : AAC
Format/Info                      : Advanced Audio Codec
Format version                   : Version 4
Format profile                   : LC
Format settings, SBR             : No
Codec ID                         : 40
Duration                         : 1h 56mn
Bit rate mode                    : Variable
Bit rate                         : 352.8 Kbps
Maximum bit rate                 : 424 Kbps
Channel(s)                       : 6 channels
Channel positions                : Front: L C R, Rear: L R, LFE
Sampling rate                    : 48.0 KHz
Resolution                       : 16 bits
Stream size                      : 290 MiB (13%)
Encoded date                     : UTC 2011-01-20 01:22:31

Subtitles                        : English | French | Spanish



----------------------------------------------------
IMDB Link: http://www.imdb.com/title/tt0088763/
----------------------------------------------------


Screen Shots:
============== 
http://bayimg.com/hADFhAAdh 
http://bayimg.com/HAdFjaadh 
http://bayimg.com/HAdFmAaDH



Plot:
======
When teenager Marty McFly (Michael J. Fox) is blasted to 1955 in the DeLorean time machine created by the eccentric Doc Brown (Christopher Lloyd), he finds himself mixed up in a time-shattering chain reaction that could vaporize his future - and leave him trapped in the past.




Release Info:
==============
original name .... : Back To The Future 1985 720p BDRip H264
ripper.............: Recalled2Life (R2L)
encoder............: Recalled2Life (R2L)
video codec........: H264/.MP4
video bitrate......: 2300 Kbps
audio codec........: AAC-LC
aspect ratio.......: 1.860
resolution.........: 1280 x 688
genre..............: Adventure | Family | Sci-Fi
runtime............: 1h 56mn
language...........: English
rating.............: PG
subtitles..........: English | French | Spanish
sample.............: Yes [20.7 MB]
2ch Audio..........: 2ch Audio for XBox Viewers
Compatibility .....: XBox | PS3 | WD Live



Source:
========
Back To The Future 25th Anniversary Trilogy Blu-Ray Part I VC-1/DTS-HD - R2L [29.1 GB]  Welcome!


Notes:
=======
ChattChitto RG Encourages Burning this Film with ConvertXtoDVD.
XBox 360 | PS3 | WD Live - Compatible 
Enhanced for your viewing pleasure ;)


++++++++++++++++++++++++++++++++++++++++++++++++++++++++++++++++++++++++++++++++


General                          : ChattChitto RG - Movies [R2L]
==========
Complete name                    : Back To The Future Part II 1989 720p BDRip H264 [ChattChitto RG]
Format                           : MPEG-4
Format profile                   : Base Media
Codec ID                         : isom
File size                        : 2.01 GiB
Duration                         : 1h 48mn
Overall bit rate                 : 2 657 Kbps
Encoded date                     : UTC 2011-01-20 01:24:19

Video
==========
ID                               : 1
Format                           : AVC
Format/Info                      : Advanced Video Codec
Format profile                   : High@L4.0
Format settings, CABAC           : Yes
Format settings, ReFrames        : 4 frames
Codec ID                         : avc1
Codec ID/Info                    : Advanced Video Coding
Duration                         : 1h 48mn
Bit rate mode                    : Variable
Bit rate                         : 2 300 Kbps
Maximum bit rate                 : 18.3 Mbps
Width                            : 1 280 pixels
Height                           : 688 pixels
Display aspect ratio             : 1.860
Frame rate mode                  : Constant
Frame rate                       : 23.976 fps
Resolution                       : 24 bits
Colorimetry                      : 4:2:0
Scan type                        : Progressive
Bits/(Pixel*Frame)               : 0.109
Stream size                      : 1.74 GiB (87%)
Writing library                  : x264 core 84 r1400M 20fa784
Encoded date                     : UTC 2011-01-17 12:31:48

Audio
==========
ID                               : 2
Format                           : AAC
Format/Info                      : Advanced Audio Codec
Format version                   : Version 4
Format profile                   : LC
Format settings, SBR             : No
Codec ID                         : 40
Duration                         : 1h 48mn
Bit rate mode                    : Variable
Bit rate                         : 352.8 Kbps
Maximum bit rate                 : 437 Kbps
Channel(s)                       : 6 channels
Channel positions                : Front: L C R, Rear: L R, LFE
Sampling rate                    : 48.0 KHz
Resolution                       : 16 bits
Stream size                      : 273 MiB (13%)
Encoded date                     : UTC 2011-01-20 01:25:21

Subtitles                        : English | French | Spanish




----------------------------------------------------
IMDB Link: http://www.imdb.com/title/tt0096874/
----------------------------------------------------


Screen Shots:
============== 
http://bayimg.com/iaDfIaaDh 
http://bayimg.com/iADFJaADH 
http://bayimg.com/IaDFKAaDH



Plot:
======
Picking up precisely where they left off, Marty and Doc (Michael J. Fox and Christopher Lloyd) launch themselves to the year 2015 to fine-tune the future and inadvertently disrupt the space time continuum. Now, their only chance to fix the present is by going back to 1955 all over again before it is too late.




Release Info:
==============
original name .... : Back To The Future Part II 1989 720p BDRip H264 [ChattChitto RG]
ripper.............: Recalled2Life (R2L)
encoder............: Recalled2Life (R2L)
video codec........: H264/.MP4
video bitrate......: 2300 Kbps
audio codec........: AAC-LC
aspect ratio.......: 1.860
resolution.........: 1280 x 688
genre..............: Adventure | Comedy | Family
runtime............: 1h 48mn
language...........: English
rating.............: PG
subtitles..........: English | French | Spanish
sample.............: Yes [23.2 MB]
2ch Audio..........: 2ch Audio for XBox Viewers
Compatibility .....: XBox | PS3 | WD Live



Source:
========
Back To The Future 25th Anniversary Trilogy Blu-Ray Part II VC-1/DTS-HD - R2L [28.2 GB]  Welcome!


Notes:
=======
ChattChitto RG Encourages Burning this Film with ConvertXtoDVD.
XBox 360 | PS3 | WD Live - Compatible 
Enhanced for your viewing pleasure ;)


+++++++++++++++++++++++++++++++++++++++++++++++++++++++++++++++++++++++++++++++++


General                          : ChattChitto RG - Movies [R2L]
==========
Complete name                    : Back To The Future Part III 1990 720p BDRip H264 [ChattChitto RG]
Format                           : MPEG-4
Format profile                   : Base Media
Codec ID                         : isom
File size                        : 2.20 GiB
Duration                         : 1h 58mn
Overall bit rate                 : 2 659 Kbps
Encoded date                     : UTC 2011-01-19 10:59:14

Video
=========
ID                               : 1
Format                           : AVC
Format/Info                      : Advanced Video Codec
Format profile                   : High@L4.0
Format settings, CABAC           : Yes
Format settings, ReFrames        : 4 frames
Codec ID                         : avc1
Codec ID/Info                    : Advanced Video Coding
Duration                         : 1h 58mn
Bit rate mode                    : Variable
Bit rate                         : 2 300 Kbps
Maximum bit rate                 : 11.6 Mbps
Width                            : 1 280 pixels
Height                           : 688 pixels
Display aspect ratio             : 1.860
Frame rate mode                  : Constant
Frame rate                       : 23.976 fps
Resolution                       : 24 bits
Colorimetry                      : 4:2:0
Scan type                        : Progressive
Bits/(Pixel*Frame)               : 0.109
Stream size                      : 1.90 GiB (86%)
Writing library                  : x264 core 84 r1400M 20fa784
Encoded date                     : UTC 2011-01-18 08:59:11

Audio
==========
ID                               : 2
Format                           : AAC
Format/Info                      : Advanced Audio Codec
Format version                   : Version 4
Format profile                   : LC
Format settings, SBR             : No
Codec ID                         : 40
Duration                         : 1h 58mn
Bit rate mode                    : Variable
Bit rate                         : 352.8 Kbps
Maximum bit rate                 : 459 Kbps
Channel(s)                       : 6 channels
Channel positions                : Front: L C R, Rear: L R, LFE
Sampling rate                    : 48.0 KHz
Resolution                       : 16 bits
Stream size                      : 301 MiB (13%)
Encoded date                     : UTC 2011-01-19 11:00:19

Subtitles                        : English | French | Spanish




----------------------------------------------------
IMDB Link: http://www.imdb.com/title/tt0099088/
----------------------------------------------------


Screen Shots:
============== 
http://bayimg.com/kaDFKaADH 
http://bayimg.com/kAdFlAadH 
http://bayimg.com/KAdfMAaDh



Plot:
======
Stranded in 1955 after a freak accident, Marty McFly (Michael J. Fox) discovers he must travel back to 1885 to rescue Doc Brown (Christopher Lloyd) before he becomes smitten with school teacher Clara Clayton (Mary Steenburgen). Now, it's up to Marty to keep Doc out of trouble, get the DeLorean running and put the past, present and future on track so they can all get back to where - and when - they belong.




Release Info:
==============
original name .... : Back To The Future Part III 1990 720p BDRip H264 [ChattChitto RG]
ripper.............: Recalled2Life (R2L)
encoder............: Recalled2Life (R2L)
video codec........: H264/.MP4
video bitrate......: 2300 Kbps
audio codec........: AAC-LC
aspect ratio.......: 1.860
resolution.........: 1280 x 688
genre..............: Adventure | Comedy | Family
runtime............: 1h 58mn
language...........: English
rating.............: PG
subtitles..........: English | French | Spanish
sample.............: Yes [15.1 MB]
2ch Audio..........: 2ch Audio for XBox Viewers
Compatibility .....: XBox | PS3 | WD Live



Source:
========
Back To The Future 25th Anniversary Trilogy Blu-Ray Part III AVC/DTS-HD - R2L [31.4 GB]  Welcome!


Notes:
=======
ChattChitto RG Encourages Burning this Film with ConvertXtoDVD.
XBox 360 | PS3 | WD Live - Compatible 
Enhanced for your viewing pleasure ;) 